<svg preserveAspectRatio="none" overflow="visible" style="display: block;" width="171" height="18" viewBox="0 0 171 18" fill="none" xmlns="http://www.w3.org/2000/svg">
<g id="BowShock">
<path d="M0 17.8011V0.198895H10.4797C11.584 0.198895 12.5869 0.281768 13.4884 0.447514C14.4124 0.596685 15.2124 0.845304 15.8886 1.19337C16.5647 1.54144 17.083 2.00552 17.4436 2.58563C17.8267 3.16575 18.0183 3.90331 18.0183 4.79834C18.0183 5.52762 17.7929 6.20718 17.3422 6.83702C16.8914 7.46685 16.2266 7.94751 15.3477 8.279C16.5196 8.56077 17.4436 9.04972 18.1197 9.74586C18.7958 10.4254 19.1339 11.3287 19.1339 12.4558C19.1339 13.4669 18.8747 14.3204 18.3563 15.0166C17.838 15.6961 17.1281 16.2431 16.2266 16.6575C15.3251 17.0718 14.2772 17.3702 13.0827 17.5525C11.8882 17.7182 10.6149 17.8011 9.26269 17.8011H0ZM4.83418 14.5193H9.83738C10.4459 14.5193 11.0093 14.4862 11.5277 14.4199C12.0685 14.3536 12.5418 14.2459 12.9475 14.0967C13.3531 13.9309 13.6687 13.7072 13.894 13.4254C14.1419 13.1436 14.2659 12.7956 14.2659 12.3812C14.2659 12 14.1645 11.6851 13.9616 11.4365C13.7813 11.1713 13.5109 10.9558 13.1503 10.7901C12.8123 10.6243 12.4066 10.5083 11.9333 10.442C11.4826 10.3757 10.9755 10.3425 10.4121 10.3425H4.83418V14.5193ZM4.83418 7.38398H9.26269C9.87119 7.38398 10.4233 7.34254 10.9192 7.25967C11.415 7.1768 11.8319 7.0442 12.17 6.86188C12.508 6.67956 12.7672 6.4558 12.9475 6.19061C13.1278 5.90884 13.2179 5.58563 13.2179 5.22099C13.2405 4.72376 13.094 4.35912 12.7785 4.12707C12.4629 3.87845 12.0347 3.71271 11.4938 3.62983C10.953 3.53039 10.3445 3.48066 9.66835 3.48066H4.83418V7.38398Z" fill="black"/>
<path d="M30.5519 17.9751C28.749 17.9751 27.1714 17.7099 25.8192 17.1796C24.4669 16.6326 23.419 15.8619 22.6753 14.8674C21.9315 13.8564 21.5597 12.663 21.5597 11.2873C21.5597 9.87845 21.9315 8.66851 22.6753 7.65746C23.4415 6.62983 24.5007 5.84254 25.853 5.29558C27.2052 4.74862 28.7602 4.47514 30.5181 4.47514C32.3211 4.47514 33.8874 4.75691 35.2171 5.32044C36.5468 5.88398 37.5834 6.67127 38.3272 7.68232C39.0709 8.69337 39.4427 9.90331 39.4427 11.3122C39.4427 12.6878 39.0709 13.8812 38.3272 14.8923C37.606 15.8867 36.5806 16.6492 35.2509 17.1796C33.9437 17.7099 32.3774 17.9751 30.5519 17.9751ZM30.4843 14.7928C31.521 14.7928 32.3549 14.6271 32.9859 14.2956C33.6169 13.9641 34.0677 13.5331 34.3381 13.0028C34.6311 12.4558 34.7776 11.884 34.7776 11.2873C34.7776 10.6906 34.6311 10.1188 34.3381 9.57182C34.0677 9.02486 33.6169 8.57735 32.9859 8.22928C32.3774 7.86464 31.5435 7.68232 30.4843 7.68232C29.4701 7.68232 28.6475 7.86464 28.0165 8.22928C27.3855 8.57735 26.9235 9.02486 26.6305 9.57182C26.36 10.1188 26.2248 10.6906 26.2248 11.2873C26.2248 11.9006 26.36 12.4724 26.6305 13.0028C26.9235 13.5331 27.3855 13.9641 28.0165 14.2956C28.6475 14.6271 29.4701 14.7928 30.4843 14.7928Z" fill="black"/>
<path d="M46.2928 17.8011L40.6811 4.69889H45.8534L49.1663 13.8232L52.6821 4.69889H57.9895L61.5053 13.8232L64.7506 4.69889H69.8552L64.2435 17.8011H58.8008L55.2513 8.95028L51.7355 17.8011H46.2928Z" fill="black"/>
<path d="M81.4906 18C79.8229 18 78.2678 17.8094 76.8255 17.4282C75.4057 17.047 74.2112 16.442 73.2421 15.6133C72.2956 14.7845 71.6983 13.7155 71.4504 12.4061H76.386C76.5888 12.9696 76.9607 13.4254 77.5016 13.7735C78.0425 14.105 78.6848 14.3453 79.4285 14.4945C80.1948 14.6436 80.9948 14.7182 81.8287 14.7182C82.4597 14.7182 83.0795 14.6602 83.688 14.5442C84.2965 14.4282 84.7923 14.2293 85.1754 13.9475C85.5811 13.6657 85.7839 13.2845 85.7839 12.8039C85.7839 12.4392 85.6712 12.1409 85.4459 11.9088C85.243 11.6768 84.9388 11.4945 84.5331 11.3619C84.15 11.2127 83.6767 11.0801 83.1133 10.9641C82.64 10.8646 82.1442 10.7818 81.6259 10.7155C81.13 10.6492 80.6342 10.5663 80.1384 10.4669C79.6651 10.3674 79.2031 10.2514 78.7524 10.1188C77.896 9.95304 77.0734 9.75414 76.2846 9.5221C75.4958 9.27348 74.7971 8.96685 74.1887 8.60221C73.5802 8.22099 73.0956 7.74862 72.735 7.18508C72.397 6.62155 72.2279 5.94199 72.2279 5.14641C72.2279 4.28453 72.4195 3.55525 72.8026 2.95856C73.2083 2.36188 73.7379 1.87293 74.3915 1.49171C75.0676 1.09392 75.8113 0.787293 76.6226 0.571823C77.4565 0.356353 78.2904 0.207182 79.1242 0.124309C79.9581 0.0414364 80.7469 0 81.4906 0C83.0457 0 84.443 0.198895 85.6825 0.596685C86.922 0.994475 87.9362 1.59116 88.725 2.38674C89.5138 3.18232 89.9645 4.18508 90.0772 5.39503H85.3782C85.2881 4.89779 85.0402 4.49171 84.6345 4.17679C84.2289 3.86188 83.7105 3.62983 83.0795 3.48066C82.471 3.33149 81.7836 3.25691 81.0174 3.25691C80.5215 3.25691 80.037 3.29005 79.5637 3.35635C79.0904 3.42265 78.6622 3.53039 78.2791 3.67956C77.9185 3.81215 77.6255 3.99448 77.4002 4.22652C77.1973 4.45856 77.0959 4.74033 77.0959 5.07182C77.0959 5.40331 77.2199 5.69337 77.4678 5.94199C77.7157 6.17403 78.0763 6.38121 78.5496 6.56354C79.0454 6.72928 79.6201 6.88674 80.2736 7.03591C80.9497 7.20166 81.6597 7.33425 82.4034 7.4337C83.1471 7.53315 83.857 7.66575 84.5331 7.83149C85.3895 7.99724 86.1896 8.19613 86.9333 8.42818C87.677 8.64365 88.3306 8.92541 88.894 9.27348C89.4574 9.60497 89.8969 10.0359 90.2124 10.5663C90.5279 11.0801 90.6857 11.7182 90.6857 12.4807C90.6857 13.4917 90.4265 14.3536 89.9082 15.0663C89.4124 15.7624 88.725 16.326 87.846 16.7569C86.9896 17.1878 86.0093 17.5028 84.905 17.7017C83.8007 17.9006 82.6625 18 81.4906 18Z" fill="black"/>
<path d="M94.1053 17.8011V0.198895H98.8381V6.21547C99.3564 5.76796 99.9311 5.41989 100.562 5.17127C101.216 4.92265 101.869 4.74862 102.523 4.64917C103.199 4.53315 103.819 4.47514 104.382 4.47514C106.05 4.47514 107.357 4.74862 108.304 5.29558C109.25 5.84254 109.926 6.58011 110.332 7.50829C110.738 8.43646 110.94 9.4558 110.94 10.5663V17.8011H106.208V11.0635C106.208 10.6657 106.151 10.268 106.039 9.87017C105.949 9.47238 105.779 9.10773 105.532 8.77624C105.284 8.42818 104.934 8.1547 104.484 7.9558C104.033 7.74033 103.436 7.6326 102.692 7.6326C101.993 7.6326 101.396 7.74033 100.9 7.9558C100.404 8.17127 99.9987 8.46133 99.6832 8.82597C99.3902 9.17403 99.1761 9.56354 99.0409 9.99447C98.9057 10.4254 98.8381 10.8564 98.8381 11.2873V17.8011H94.1053Z" fill="black"/>
<path d="M122.89 17.9751C121.087 17.9751 119.509 17.7099 118.157 17.1796C116.805 16.6326 115.757 15.8619 115.013 14.8674C114.269 13.8564 113.897 12.663 113.897 11.2873C113.897 9.87845 114.269 8.66851 115.013 7.65746C115.779 6.62983 116.838 5.84254 118.191 5.29558C119.543 4.74862 121.098 4.47514 122.856 4.47514C124.659 4.47514 126.225 4.75691 127.555 5.32044C128.884 5.88398 129.921 6.67127 130.665 7.68232C131.409 8.69337 131.78 9.90331 131.78 11.3122C131.78 12.6878 131.409 13.8812 130.665 14.8923C129.944 15.8867 128.918 16.6492 127.589 17.1796C126.281 17.7099 124.715 17.9751 122.89 17.9751ZM122.822 14.7928C123.859 14.7928 124.693 14.6271 125.324 14.2956C125.955 13.9641 126.405 13.5331 126.676 13.0028C126.969 12.4558 127.115 11.884 127.115 11.2873C127.115 10.6906 126.969 10.1188 126.676 9.57182C126.405 9.02486 125.955 8.57735 125.324 8.22928C124.715 7.86464 123.881 7.68232 122.822 7.68232C121.808 7.68232 120.985 7.86464 120.354 8.22928C119.723 8.57735 119.261 9.02486 118.968 9.57182C118.698 10.1188 118.563 10.6906 118.563 11.2873C118.563 11.9006 118.698 12.4724 118.968 13.0028C119.261 13.5331 119.723 13.9641 120.354 14.2956C120.985 14.6271 121.808 14.7928 122.822 14.7928Z" fill="black"/>
<path d="M142.789 17.9751C140.963 17.9751 139.397 17.7017 138.09 17.1547C136.805 16.6077 135.825 15.837 135.149 14.8425C134.472 13.8315 134.134 12.6464 134.134 11.2873C134.134 9.9116 134.484 8.71823 135.182 7.70718C135.881 6.67956 136.884 5.88398 138.191 5.32044C139.521 4.75691 141.121 4.47514 142.991 4.47514C144.434 4.47514 145.718 4.66575 146.845 5.04696C147.972 5.42818 148.874 5.97514 149.55 6.68784C150.248 7.40055 150.654 8.279 150.767 9.3232H146.135C145.932 8.74309 145.538 8.32044 144.952 8.05525C144.389 7.79005 143.713 7.65746 142.924 7.65746C141.91 7.65746 141.098 7.83978 140.49 8.20442C139.904 8.56906 139.476 9.03315 139.205 9.59668C138.957 10.1602 138.833 10.7238 138.833 11.2873C138.833 11.9006 138.969 12.4807 139.239 13.0276C139.509 13.558 139.938 13.9972 140.524 14.3453C141.132 14.6768 141.921 14.8425 142.89 14.8425C143.701 14.8425 144.411 14.7099 145.02 14.4448C145.628 14.163 146.023 13.732 146.203 13.1519H150.936C150.823 14.2293 150.384 15.1243 149.617 15.837C148.851 16.5497 147.871 17.0884 146.676 17.453C145.504 17.8011 144.208 17.9751 142.789 17.9751Z" fill="black"/>
<path d="M153.793 17.8011V0.198895H158.526V9.72099H160.858L165.219 4.69889H170.527L164.847 10.9392L171 17.8011H165.524L161.061 12.8287H158.526V17.8011H153.793Z" fill="black"/>
</g>
</svg>
